<?xml version="1.0" encoding="utf-8"?>
<!-- Generator: Adobe Illustrator 19.2.1, SVG Export Plug-In . SVG Version: 6.00 Build 0)  -->
<svg version="1.1" id="Layer_1" xmlns="http://www.w3.org/2000/svg" xmlns:xlink="http://www.w3.org/1999/xlink" x="0px" y="0px"
	 viewBox="0 0 76.8 76.8" style="enable-background:new 0 0 76.8 76.8;" xml:space="preserve">
<style type="text/css">
	.st0{fill:#231F20;}
	.st1{fill:none;stroke:#C3996B;stroke-width:2.5718;stroke-miterlimit:10;}
	.st2{fill:none;stroke:#FFFFFF;stroke-width:2.5718;stroke-miterlimit:10;}
	.st3{fill:none;stroke:#26A9E0;stroke-width:2.5718;stroke-linecap:round;stroke-linejoin:round;stroke-miterlimit:10;}
	.st4{fill:none;stroke:#37B34A;stroke-width:2.5718;stroke-linecap:round;stroke-linejoin:round;stroke-miterlimit:10;}
</style>
<g>
	<path class="st0" d="M60.5,76.8H16.3C7.3,76.8,0,69.4,0,60.5V16.3C0,7.3,7.4,0,16.3,0h44.2c9,0,16.3,7.4,16.3,16.3v44.2
		C76.9,69.4,69.5,76.8,60.5,76.8z"/>
	<g>
		<line class="st1" x1="30.3" y1="29.7" x2="47.7" y2="47.1"/>
		<path class="st2" d="M32.9,54.8L22.5,44.5c-1.9-1.9-1.9-5.1,0-7L47,13c1.9-1.9,5.1-1.9,7,0l10.4,10.4c1.9,1.9,1.9,5.1,0,7
			L39.9,54.9C38,56.8,34.8,56.8,32.9,54.8z"/>
	</g>
	<line class="st3" x1="8.6" y1="58.4" x2="23.6" y2="58.4"/>
	<line class="st4" x1="20.8" y1="65.4" x2="35.8" y2="65.4"/>
</g>
</svg>
