<?xml version="1.0" encoding="utf-8"?>
<!-- Generator: Adobe Illustrator 19.2.1, SVG Export Plug-In . SVG Version: 6.00 Build 0)  -->
<svg version="1.1" id="Layer_1" xmlns="http://www.w3.org/2000/svg" xmlns:xlink="http://www.w3.org/1999/xlink" x="0px" y="0px"
	 viewBox="0 0 30.8 30.8" style="enable-background:new 0 0 30.8 30.8;" xml:space="preserve">
<style type="text/css">
	.st0{fill:#FFFFFF;}
</style>
<g>
	<path class="st0" d="M15.4,30.8C6.9,30.8,0,23.9,0,15.4S6.9,0,15.4,0s15.4,6.9,15.4,15.4S23.9,30.8,15.4,30.8z M15.4,2.9
		C8.5,2.9,2.9,8.5,2.9,15.4s5.6,12.5,12.5,12.5s12.5-5.6,12.5-12.5S22.3,2.9,15.4,2.9z"/>
	<g>
		<path class="st0" d="M9.9,19.2l3.7-3.9l-3.5-3.7c-0.2-0.3-0.4-0.6-0.4-1c0-0.7,0.6-1.3,1.5-1.3c0.6,0,1,0.2,1.4,0.6l3,3.4l3-3.4
			c0.4-0.5,0.8-0.7,1.5-0.7s1.4,0.5,1.4,1.2c0,0.4-0.2,0.7-0.4,1l-3.5,3.7l3.7,3.9c0.2,0.3,0.4,0.6,0.4,1c0,0.7-0.6,1.3-1.5,1.3
			c-0.6,0-1-0.2-1.4-0.6l-3.2-3.6l-3.1,3.6c-0.4,0.5-0.8,0.7-1.5,0.7s-1.4-0.5-1.4-1.2C9.4,19.8,9.6,19.5,9.9,19.2z"/>
	</g>
</g>
</svg>
