<?xml version="1.0" encoding="utf-8"?>
<!-- Generator: Adobe Illustrator 19.2.1, SVG Export Plug-In . SVG Version: 6.00 Build 0)  -->
<svg version="1.1" id="Layer_1" xmlns="http://www.w3.org/2000/svg" xmlns:xlink="http://www.w3.org/1999/xlink" x="0px" y="0px"
	 viewBox="0 0 612 792" style="enable-background:new 0 0 612 792;" xml:space="preserve">
<style type="text/css">
	.st0{fill:#EC407A;}
	.st1{fill:#03A9F4;}
	.st2{fill:#FFFFFF;}
	.st3{fill:url(#SVGID_1_);}
	.st4{fill:#FF9800;}
	.st5{fill:#FFEB3B;}
	.st6{fill:#8BC34A;}
	.st7{fill:#9C27B0;}
	.st8{fill:url(#SVGID_2_);}
	.st9{fill:#231F20;}
	.st10{fill:#C3996B;}
	.st11{fill:#26A9E0;}
	.st12{fill:#37B34A;}
</style>
<path class="st0" d="M384.3,487H75.7c-9,0-16.3-7.4-16.3-16.3v-44.2c0-9,7.4-16.3,16.3-16.3h308.6c9,0,16.3,7.4,16.3,16.3v44.2
	C400.7,479.7,393.3,487,384.3,487z"/>
<path class="st1" d="M385.3,592H76.8c-9,0-16.3-7.4-16.3-16.3v-44.2c0-9,7.4-16.3,16.3-16.3h308.6c9,0,16.3,7.4,16.3,16.3v44.2
	C401.7,584.7,394.3,592,385.3,592z"/>
<g>
	<path class="st2" d="M471.2,537.4c-8.5,0-15.4-6.9-15.4-15.4c0-0.8,0.7-1.5,1.5-1.5s1.5,0.7,1.5,1.5c0,6.9,5.6,12.5,12.5,12.5
		s12.5-5.6,12.5-12.5s-5.6-12.5-12.5-12.5c-1,0-2,0.1-2.9,0.3c-0.8,0.2-1.6-0.3-1.8-1.1c-0.2-0.8,0.3-1.6,1.1-1.8
		c1.2-0.3,2.4-0.4,3.6-0.4c8.5,0,15.4,6.9,15.4,15.4S479.7,537.4,471.2,537.4z"/>
	<path class="st2" d="M474.1,514.4c-0.3,0-0.5-0.1-0.8-0.2l-7.5-5.1c-0.4-0.2-0.6-0.7-0.6-1.1s0.2-0.9,0.6-1.1l7.5-5.1
		c0.6-0.4,1.5-0.3,1.9,0.4c0.4,0.6,0.3,1.5-0.4,1.9l-5.9,4l5.9,4c0.6,0.4,0.8,1.3,0.4,1.9C474.9,514.2,474.5,514.4,474.1,514.4z"/>
</g>
<g>
	<g>
		<path class="st2" d="M492.4,560.4c-0.3,0-0.7-0.1-0.9-0.4c-0.6-0.5-0.7-1.4-0.2-2.1c2-2.3,3-5.2,3-8.2c0-6.9-5.6-12.5-12.5-12.5
			c-1,0-2,0.1-2.9,0.3c-0.8,0.2-1.6-0.3-1.8-1.1c-0.2-0.8,0.3-1.6,1.1-1.8c1.2-0.3,2.4-0.4,3.6-0.4c8.5,0,15.4,6.9,15.4,15.4
			c0,3.7-1.3,7.3-3.7,10.1C493.3,560.2,492.9,560.4,492.4,560.4z"/>
		<path class="st2" d="M484.7,542.2c-0.3,0-0.5-0.1-0.8-0.2l-7.5-5.1c-0.4-0.2-0.6-0.7-0.6-1.1s0.2-0.9,0.6-1.1l7.5-5.1
			c0.6-0.4,1.5-0.3,1.9,0.4c0.4,0.6,0.3,1.5-0.4,1.9l-5.9,4l5.9,4c0.6,0.4,0.8,1.3,0.4,1.9C485.6,542,485.2,542.2,484.7,542.2z"/>
	</g>
	<g>
		<path class="st2" d="M481.4,565.5c-8.5,0-15.4-6.9-15.4-15.4c0-3.7,1.3-7.3,3.7-10.1c0.5-0.6,1.4-0.7,2.1-0.2
			c0.6,0.5,0.7,1.4,0.2,2.1c-2,2.3-3,5.2-3,8.2c0,6.9,5.6,12.5,12.5,12.5c1,0,2-0.1,2.9-0.3c0.8-0.2,1.6,0.3,1.8,1.1
			c0.2,0.8-0.3,1.6-1.1,1.8C483.8,565.4,482.6,565.5,481.4,565.5z"/>
		<path class="st2" d="M478.5,570.5c-0.4,0-0.9-0.2-1.1-0.6c-0.4-0.6-0.3-1.5,0.4-1.9l5.9-4l-5.9-4c-0.6-0.4-0.8-1.3-0.4-1.9
			c0.4-0.6,1.3-0.8,1.9-0.4l7.5,5.1c0.4,0.2,0.6,0.7,0.6,1.1s-0.2,0.9-0.6,1.1l-7.5,5.1C479.1,570.4,478.8,570.5,478.5,570.5z"/>
	</g>
</g>
<g>
	<path class="st2" d="M462.9,464.8c-8.5,0-15.4-6.9-15.4-15.4s6.9-15.4,15.4-15.4s15.4,6.9,15.4,15.4S471.4,464.8,462.9,464.8z
		 M462.9,436.9c-6.9,0-12.5,5.6-12.5,12.5s5.6,12.5,12.5,12.5s12.5-5.6,12.5-12.5S469.8,436.9,462.9,436.9z"/>
	<g>
		<path class="st2" d="M457.4,453.2l3.7-3.9l-3.5-3.7c-0.2-0.3-0.4-0.6-0.4-1c0-0.7,0.6-1.3,1.5-1.3c0.6,0,1,0.2,1.4,0.6l3,3.4
			l3-3.4c0.4-0.5,0.8-0.7,1.5-0.7s1.4,0.5,1.4,1.2c0,0.4-0.2,0.7-0.4,1l-3.5,3.7l3.7,3.9c0.2,0.3,0.4,0.6,0.4,1
			c0,0.7-0.6,1.3-1.5,1.3c-0.6,0-1-0.2-1.4-0.6l-3.2-3.6l-3.1,3.6c-0.4,0.5-0.8,0.7-1.5,0.7c-0.7,0-1.4-0.5-1.4-1.2
			C456.9,453.8,457.1,453.5,457.4,453.2z"/>
	</g>
</g>
<g>
	<g>
		<path class="st2" d="M262,188.3l21.8-47.7c0.8-1.7,1.9-2.7,3.8-2.7h0.3c1.8,0,3.1,1,3.8,2.7l21.8,47.6c0.2,0.5,0.4,1.1,0.4,1.5
			c0,1.6-1.3,2.9-2.9,2.9c-1.5,0-2.5-1-3-2.2l-5.6-12.4h-29.5l-5.6,12.5c-0.5,1.3-1.5,2.1-2.9,2.1c-1.5,0-2.8-1.2-2.8-2.8
			C261.7,189.5,261.7,188.9,262,188.3z M300.1,172.6l-12.4-27.5l-12.4,27.5H300.1z"/>
		<path class="st2" d="M322.5,141.6c0-1.7,1.4-3.1,3-3.1h20.1c6.6,0,11.9,2,15.3,5.4c2.6,2.6,4.1,6.4,4.1,10.6v0.2
			c0,8.8-6,14-14.4,15.6l13.4,17.2c0.6,0.7,1,1.4,1,2.2c0,1.6-1.5,3-3.1,3c-1.2,0-2.2-0.7-2.8-1.6L344,171.4h-15.4v18.2
			c0,1.7-1.4,3.1-3.1,3.1c-1.6,0-3-1.4-3-3.1V141.6z M345.1,166c8.1,0,13.8-4.1,13.8-11.1v-0.2c0-6.6-5.1-10.6-13.7-10.6h-16.6V166
			H345.1z"/>
		<path class="st2" d="M388.9,144.1h-15.6c-1.5,0-2.8-1.2-2.8-2.8c0-1.5,1.3-2.8,2.8-2.8h37.3c1.5,0,2.8,1.3,2.8,2.8
			c0,1.5-1.3,2.8-2.8,2.8H395v45.5c0,1.7-1.4,3.1-3.1,3.1c-1.7,0-3.1-1.4-3.1-3.1V144.1z"/>
		<path class="st2" d="M410.2,180.8v-0.2c0-8.4,6.9-12.8,17-12.8c5.1,0,8.7,0.7,12.2,1.7v-1.4c0-7.1-4.4-10.8-11.8-10.8
			c-4,0-7.4,0.9-10.3,2.2c-0.4,0.2-0.8,0.2-1.1,0.2c-1.4,0-2.6-1.2-2.6-2.5c0-1.2,0.8-2.1,1.6-2.5c3.9-1.7,7.9-2.7,13-2.7
			c5.6,0,9.9,1.5,12.8,4.4c2.7,2.7,4.1,6.5,4.1,11.6v21.7c0,1.7-1.2,2.9-2.8,2.9c-1.7,0-2.8-1.2-2.8-2.8v-3.6
			c-2.8,3.6-7.4,6.8-14.4,6.8C417.6,193.1,410.2,188.9,410.2,180.8z M439.4,177.7v-3.8c-2.9-0.8-6.8-1.7-11.7-1.7
			c-7.4,0-11.6,3.2-11.6,8.2v0.2c0,5,4.6,7.9,10,7.9C433.4,188.5,439.4,184,439.4,177.7z"/>
		<path class="st2" d="M456.1,138.8c0-1.7,1.3-3,2.9-3c1.7,0,3,1.3,3,3v21.7c3.2-4.8,7.9-8.8,15.2-8.8c9.5,0,19,7.5,19,20.6v0.2
			c0,13-9.4,20.7-19,20.7c-7.4,0-12.1-4-15.2-8.4v5c0,1.6-1.2,3-2.9,3s-3-1.4-3-3V138.8z M490.1,172.6v-0.2c0-9.4-6.5-15.4-14-15.4
			c-7.4,0-14.4,6.2-14.4,15.3v0.2c0,9.2,7,15.4,14.4,15.4C483.8,187.8,490.1,182.2,490.1,172.6z"/>
		<path class="st2" d="M506.1,138.8c0-1.6,1.3-3,2.9-3c1.7,0,3,1.4,3,3v50.8c0,1.7-1.2,3-2.9,3c-1.7,0-3-1.3-3-3V138.8z"/>
		<path class="st2" d="M541.6,193.2c-10.9,0-19.8-8.4-19.8-20.7v-0.2c0-11.4,8.1-20.7,19-20.7c11.8,0,18.4,9.6,18.4,20.1
			c0,1.6-1.3,2.8-2.8,2.8h-28.7c0.8,8.6,6.9,13.4,14,13.4c4.9,0,8.5-1.9,11.4-4.6c0.5-0.4,1-0.7,1.7-0.7c1.5,0,2.6,1.2,2.6,2.5
			c0,0.7-0.3,1.4-0.9,1.9C552.8,190.8,548.3,193.2,541.6,193.2z M553.3,170.3c-0.6-7.2-4.8-13.5-12.7-13.5
			c-6.9,0-12.1,5.8-12.9,13.5H553.3z"/>
	</g>
	<g>
		<path class="st2" d="M211.4,173.3l-16.1-10.4c-1.2-0.8-1.2-2.6,0-3.4l16.1-10.4c0.7-0.4,1.5-0.4,2.2,0l16.1,10.4
			c1.2,0.8,1.2,2.6,0,3.4l-16.1,10.4C213,173.7,212.1,173.7,211.4,173.3z"/>
		<linearGradient id="SVGID_1_" gradientUnits="userSpaceOnUse" x1="204.6308" y1="153.1873" x2="217.5795" y2="171.6799">
			<stop  offset="0" style="stop-color:#EE4580"/>
			<stop  offset="0.171" style="stop-color:#F6921E"/>
			<stop  offset="0.3181" style="stop-color:#FFC632"/>
			<stop  offset="0.5058" style="stop-color:#8BC53F"/>
			<stop  offset="0.7243" style="stop-color:#379ED8"/>
			<stop  offset="1" style="stop-color:#90278E"/>
		</linearGradient>
		<path class="st3" d="M211.4,173.3l-16.1-10.4c-1.2-0.8-1.2-2.6,0-3.4l15.4-6.9c0.7-0.4,1.5-0.4,2.2,0l12.5,7.4
			c1.2,0.8,1.2,2.6,0,3.4l-11.9,9.9C213,173.7,212.1,173.7,211.4,173.3z"/>
		<g>
			<path class="st2" d="M208.1,184.7l-14.4-9.3v9.5c0,4,3.3,7.4,7.4,7.4h7V184.7z"/>
			<polygon class="st2" points="216.4,192.3 233.5,192.3 233.5,174 216.4,185 			"/>
			<path class="st2" d="M242.2,136.5h-41.1c-4,0-7.4,3.3-7.4,7.4v9.4l16.4-10.6c1.5-0.9,3.3-0.9,4.8,0l24.9,16.1
				c1.3,0.9,2,2.3,2,3.7v29.8h0.3c4,0,7.4-3.3,7.4-7.4v-41.1C249.5,139.8,246.2,136.5,242.2,136.5z"/>
		</g>
	</g>
</g>
<path class="st0" d="M72.9,338.3H28.7c-9,0-16.3-7.4-16.3-16.3v-44.2c0-9,7.4-16.3,16.3-16.3h44.2c9,0,16.3,7.4,16.3,16.3v44.2
	C89.3,330.9,81.9,338.3,72.9,338.3z"/>
<path class="st4" d="M161,338.3h-44.2c-9,0-16.3-7.4-16.3-16.3v-44.2c0-9,7.4-16.3,16.3-16.3H161c9,0,16.3,7.4,16.3,16.3v44.2
	C177.4,330.9,170,338.3,161,338.3z"/>
<path class="st5" d="M249.1,338.3h-44.2c-9,0-16.3-7.4-16.3-16.3v-44.2c0-9,7.4-16.3,16.3-16.3h44.2c9,0,16.3,7.4,16.3,16.3v44.2
	C265.5,330.9,258.1,338.3,249.1,338.3z"/>
<path class="st6" d="M337.2,338.3H293c-9,0-16.3-7.4-16.3-16.3v-44.2c0-9,7.4-16.3,16.3-16.3h44.2c9,0,16.3,7.4,16.3,16.3v44.2
	C353.6,330.9,346.2,338.3,337.2,338.3z"/>
<path class="st1" d="M425.3,338.3h-44.2c-9,0-16.3-7.4-16.3-16.3v-44.2c0-9,7.4-16.3,16.3-16.3h44.2c9,0,16.3,7.4,16.3,16.3v44.2
	C441.7,330.9,434.3,338.3,425.3,338.3z"/>
<path class="st7" d="M513.4,338.3h-44.2c-9,0-16.3-7.4-16.3-16.3v-44.2c0-9,7.4-16.3,16.3-16.3h44.2c9,0,16.3,7.4,16.3,16.3v44.2
	C529.8,330.9,522.4,338.3,513.4,338.3z"/>
<linearGradient id="SVGID_2_" gradientUnits="userSpaceOnUse" x1="553.994" y1="274.3648" x2="606.011" y2="326.3819">
	<stop  offset="0" style="stop-color:#EE4580"/>
	<stop  offset="0.1704" style="stop-color:#F6921E"/>
	<stop  offset="0.3448" style="stop-color:#F9EC31"/>
	<stop  offset="0.5241" style="stop-color:#8BC53F"/>
	<stop  offset="0.6744" style="stop-color:#26A9E0"/>
	<stop  offset="0.8241" style="stop-color:#1B75BB"/>
	<stop  offset="1" style="stop-color:#90278E"/>
</linearGradient>
<path class="st8" d="M601.6,338.3h-44.2c-9,0-16.3-7.4-16.3-16.3v-44.2c0-9,7.4-16.3,16.3-16.3h44.2c9,0,16.3,7.4,16.3,16.3v44.2
	C617.9,330.9,610.5,338.3,601.6,338.3z"/>
<g>
	<path class="st9" d="M689.7,338.3h-44.2c-9,0-16.3-7.4-16.3-16.3v-44.2c0-9,7.4-16.3,16.3-16.3h44.2c9,0,16.3,7.4,16.3,16.3v44.2
		C706,330.9,698.7,338.3,689.7,338.3z"/>
	<g>
		
			<rect x="666.8" y="287.6" transform="matrix(0.7071 -0.7071 0.7071 0.7071 -16.3615 560.2872)" class="st10" width="2.6" height="24.6"/>
		<path class="st2" d="M665.6,319.1c-1.7,0-3.2-0.7-4.4-1.8l-10.4-10.4c-1.2-1.2-1.8-2.8-1.8-4.4c0-1.7,0.7-3.2,1.8-4.4l24.5-24.5
			c1.2-1.2,2.8-1.8,4.4-1.8c1.7,0,3.2,0.7,4.4,1.8l10.4,10.4c2.4,2.4,2.4,6.4,0,8.8L670,317.2C668.8,318.4,667.2,319.1,665.6,319.1z
			 M679.7,274.3c-1,0-1.9,0.4-2.6,1.1l-24.5,24.5c-0.7,0.7-1.1,1.6-1.1,2.6c0,1,0.4,1.9,1.1,2.6l10.4,10.4c1.4,1.4,3.8,1.4,5.2,0
			l24.5-24.5c1.4-1.4,1.4-3.8,0-5.2l-10.4-10.4C681.6,274.7,680.7,274.3,679.7,274.3z"/>
	</g>
	<path class="st11" d="M652.8,321.2h-15c-0.7,0-1.3-0.6-1.3-1.3s0.6-1.3,1.3-1.3h15c0.7,0,1.3,0.6,1.3,1.3S653.5,321.2,652.8,321.2z
		"/>
	<path class="st12" d="M664.9,328.2h-15c-0.7,0-1.3-0.6-1.3-1.3s0.6-1.3,1.3-1.3h15c0.7,0,1.3,0.6,1.3,1.3S665.7,328.2,664.9,328.2z
		"/>
</g>
</svg>
