<?xml version="1.0" encoding="utf-8"?>
<!-- Generator: Adobe Illustrator 19.2.1, SVG Export Plug-In . SVG Version: 6.00 Build 0)  -->
<svg version="1.1" id="Layer_1" xmlns="http://www.w3.org/2000/svg" xmlns:xlink="http://www.w3.org/1999/xlink" x="0px" y="0px"
	 viewBox="0 0 30.9 35.8" style="enable-background:new 0 0 30.9 35.8;" xml:space="preserve">
<style type="text/css">
	.st0{fill:#FFFFFF;}
</style>
<g>
	<path class="st0" d="M15.4,35.8C6.9,35.8,0,28.9,0,20.4c0-0.8,0.7-1.5,1.5-1.5S3,19.6,3,20.4c0,6.9,5.6,12.5,12.5,12.5
		S28,27.3,28,20.4S22.4,7.9,15.5,7.9c-1,0-2,0.1-2.9,0.3c-0.8,0.2-1.6-0.3-1.8-1.1c-0.2-0.8,0.3-1.6,1.1-1.8
		c1.2-0.3,2.4-0.4,3.6-0.4c8.5,0,15.4,6.9,15.4,15.4S23.9,35.8,15.4,35.8z"/>
	<path class="st0" d="M18.3,12.8c-0.3,0-0.5-0.1-0.8-0.2L10,7.5C9.6,7.3,9.4,6.8,9.4,6.4S9.6,5.5,10,5.3l7.5-5.1
		c0.6-0.4,1.5-0.3,1.9,0.4c0.4,0.6,0.3,1.5-0.4,1.9l-5.9,4l5.9,4c0.6,0.4,0.8,1.3,0.4,1.9C19.1,12.6,18.7,12.8,18.3,12.8z"/>
</g>
</svg>
