<svg id="Layer_1" data-name="Layer 1" xmlns="http://www.w3.org/2000/svg" xmlns:xlink="http://www.w3.org/1999/xlink" viewBox="0 0 365.5 57.37"><defs><style>.cls-1{fill:#fff;}.cls-2{fill:url(#linear-gradient);}</style><linearGradient id="linear-gradient" x1="204.63" y1="153.19" x2="217.58" y2="171.68" gradientUnits="userSpaceOnUse"><stop offset="0" stop-color="#ee4580"/><stop offset="0.17" stop-color="#f6921e"/><stop offset="0.32" stop-color="#ffc632"/><stop offset="0.51" stop-color="#8bc53f"/><stop offset="0.72" stop-color="#379ed8"/><stop offset="1" stop-color="#90278e"/></linearGradient></defs><title>Logo</title><path class="cls-1" d="M262,188.3l21.81-47.69a4,4,0,0,1,3.84-2.69H288a3.87,3.87,0,0,1,3.76,2.69l21.81,47.61a4.1,4.1,0,0,1,.38,1.54,2.92,2.92,0,0,1-2.92,2.92,3.31,3.31,0,0,1-3-2.23l-5.61-12.36H272.94l-5.61,12.52a3,3,0,0,1-2.92,2.07,2.75,2.75,0,0,1-2.76-2.76A3.49,3.49,0,0,1,262,188.3Zm38-15.74-12.36-27.49-12.36,27.49h24.73Z" transform="translate(-193.73 -135.85)"/><path class="cls-1" d="M322.47,141.61a3.07,3.07,0,0,1,3-3.07h20.12c6.6,0,11.9,2,15.28,5.38a14.85,14.85,0,0,1,4.15,10.6v0.15c0,8.83-6,14-14.36,15.59L364,187.46a3.3,3.3,0,0,1,1,2.23,3.17,3.17,0,0,1-3.07,3,3.54,3.54,0,0,1-2.84-1.61L344,171.41H328.54v18.2a3,3,0,1,1-6.07,0v-48ZM345.05,166c8.06,0,13.82-4.15,13.82-11.06v-0.15c0-6.6-5.07-10.6-13.75-10.6H328.54V166h16.51Z" transform="translate(-193.73 -135.85)"/><path class="cls-1" d="M388.9,144.14H373.31a2.82,2.82,0,0,1-2.84-2.76,2.89,2.89,0,0,1,2.84-2.84h37.32a2.89,2.89,0,0,1,2.84,2.84,2.82,2.82,0,0,1-2.84,2.76H395v45.46a3.07,3.07,0,0,1-6.14,0V144.14Z" transform="translate(-193.73 -135.85)"/><path class="cls-1" d="M410.17,180.77v-0.15c0-8.37,6.91-12.83,17-12.83a42.17,42.17,0,0,1,12.21,1.69V168.1c0-7.14-4.38-10.83-11.83-10.83a24.79,24.79,0,0,0-10.29,2.23,3,3,0,0,1-1.08.23,2.62,2.62,0,0,1-2.61-2.53,2.71,2.71,0,0,1,1.61-2.46,31.31,31.31,0,0,1,13-2.69c5.61,0,9.91,1.46,12.83,4.38C443.66,159.12,445,163,445,168v21.73a2.81,2.81,0,0,1-2.84,2.92,2.72,2.72,0,0,1-2.84-2.76V186.3A17.4,17.4,0,0,1,425,193.14C417.62,193.14,410.17,188.91,410.17,180.77Zm29.26-3.07v-3.84a41.42,41.42,0,0,0-11.67-1.69c-7.45,0-11.6,3.23-11.6,8.22v0.15c0,5,4.61,7.91,10,7.91C433.44,188.45,439.43,184,439.43,177.7Z" transform="translate(-193.73 -135.85)"/><path class="cls-1" d="M456.1,138.84a3,3,0,1,1,5.91,0v21.73c3.23-4.76,7.91-8.83,15.21-8.83,9.52,0,19,7.53,19,20.58v0.15c0,13-9.37,20.66-19,20.66-7.37,0-12.13-4-15.21-8.45v5a2.93,2.93,0,0,1-2.92,3,3,3,0,0,1-3-3V138.84Zm34,33.71V172.4c0-9.37-6.45-15.36-14-15.36-7.37,0-14.36,6.22-14.36,15.28v0.15c0,9.22,7,15.36,14.36,15.36C483.82,187.84,490.12,182.16,490.12,172.56Z" transform="translate(-193.73 -135.85)"/><path class="cls-1" d="M506.09,138.84a3,3,0,1,1,5.91,0v50.84a2.89,2.89,0,0,1-2.92,3,3,3,0,0,1-3-3V138.84Z" transform="translate(-193.73 -135.85)"/><path class="cls-1" d="M541.57,193.22c-10.91,0-19.81-8.37-19.81-20.66V172.4c0-11.44,8.06-20.66,19-20.66,11.75,0,18.43,9.6,18.43,20.12a2.75,2.75,0,0,1-2.76,2.76H527.74c0.84,8.6,6.91,13.44,14,13.44a16.23,16.23,0,0,0,11.44-4.61,2.55,2.55,0,0,1,4.3,1.84,2.55,2.55,0,0,1-.92,1.92A20.18,20.18,0,0,1,541.57,193.22Zm11.75-23c-0.61-7.22-4.76-13.52-12.67-13.52-6.91,0-12.13,5.76-12.9,13.52h25.57Z" transform="translate(-193.73 -135.85)"/><path class="cls-1" d="M211.44,173.3L195.35,162.9a2,2,0,0,1,0-3.37l16.09-10.41a2,2,0,0,1,2.18,0l16.09,10.41a2,2,0,0,1,0,3.37L213.62,173.3A2,2,0,0,1,211.44,173.3Z" transform="translate(-193.73 -135.85)"/><path class="cls-2" d="M211.44,173.3L195.35,162.9a2,2,0,0,1,0-3.37l15.44-6.91a2,2,0,0,1,2.18,0l12.54,7.44a2,2,0,0,1,0,3.37l-11.9,9.88A2,2,0,0,1,211.44,173.3Z" transform="translate(-193.73 -135.85)"/><path class="cls-1" d="M208.11,184.69l-14.37-9.3v9.55a7.38,7.38,0,0,0,7.36,7.36h7v-7.61Z" transform="translate(-193.73 -135.85)"/><polygon class="cls-1" points="22.7 56.45 39.77 56.45 39.77 38.13 22.7 49.17 22.7 56.45"/><path class="cls-1" d="M242.16,136.51H201.09a7.38,7.38,0,0,0-7.36,7.36v9.44l16.39-10.6a4.42,4.42,0,0,1,4.81,0l24.88,16.09a4.39,4.39,0,0,1,2,3.71v29.78h0.33a7.38,7.38,0,0,0,7.36-7.36V143.86A7.38,7.38,0,0,0,242.16,136.51Z" transform="translate(-193.73 -135.85)"/></svg>